<?xml version="1.0" encoding="UTF-8" standalone="no"?>
<svg
   xmlns:dc="http://purl.org/dc/elements/1.1/"
   xmlns:cc="http://creativecommons.org/ns#"
   xmlns:rdf="http://www.w3.org/1999/02/22-rdf-syntax-ns#"
   xmlns:svg="http://www.w3.org/2000/svg"
   xmlns="http://www.w3.org/2000/svg"
   xmlns:sodipodi="http://sodipodi.sourceforge.net/DTD/sodipodi-0.dtd"
   xmlns:inkscape="http://www.inkscape.org/namespaces/inkscape"
   width="88"
   height="90"
   viewBox="0 0 88 90"
   version="1.1"
   id="svg2"
   inkscape:version="0.91 r13725"
   sodipodi:docname="1.svg">
  <metadata
     id="metadata69">
    <rdf:RDF>
      <cc:Work
         rdf:about="">
        <dc:format>image/svg+xml</dc:format>
        <dc:type
           rdf:resource="http://purl.org/dc/dcmitype/StillImage" />
        <dc:title>C - 1</dc:title>
      </cc:Work>
    </rdf:RDF>
  </metadata>
  <defs
     id="defs67" />
  <sodipodi:namedview
     pagecolor="#ffffff"
     bordercolor="#666666"
     borderopacity="1"
     objecttolerance="10"
     gridtolerance="10"
     guidetolerance="10"
     inkscape:pageopacity="0"
     inkscape:pageshadow="2"
     inkscape:window-width="1304"
     inkscape:window-height="631"
     id="namedview65"
     showgrid="false"
     inkscape:zoom="2.6516854"
     inkscape:cx="-21.618644"
     inkscape:cy="44.5"
     inkscape:window-x="0"
     inkscape:window-y="0"
     inkscape:window-maximized="0"
     inkscape:current-layer="svg2" />
  <!-- Generator: Sketch 53.2 (72643) - https://sketchapp.com -->
  <title
     id="title4">C - 1</title>
  <desc
     id="desc6">Created with Sketch.</desc>
  <g
     id="Page-1"
     style="fill:none;fill-rule:evenodd;stroke:none;stroke-width:1"
     transform="translate(0,0.08945615)">
    <g
       id="C---1"
       transform="translate(0.636482,1)"
       style="stroke:#ff4141">
      <polygon
         id="Path-2"
         points="76.495126,18.420669 59.998899,2.6353497 57.696405,14.078257 76.495126,40.516711 86.215593,39.944193 " />
      <polygon
         id="Path-16"
         points="74.4492,33.04154 78.991766,35.339588 80.67744,33.04154 78.627017,27.420869 74.4492,20.196457 69.11392,13.980399 64.580876,10.603529 62.639427,12.115263 63.610152,17.681953 68.601049,26.198186 " />
      <polyline
         id="Path-18"
         points="55.6605883 1.43417323 50.8407797 18.6139201 47.5649009 29.4676261 46.6793466 30.3294606 37.6894355 58.2206153 37.2852757 61.4631977 35.285943 67.704622" />
      <path
         d=""
         id="Path-19"
         inkscape:connector-curvature="0" />
      <polygon
         id="Path-20"
         points="51.655432,86.935313 29.112148,83.214613 9.135597,73.361087 17.703097,69.493602 48.143368,79.229858 " />
      <polygon
         id="Path-21"
         points="20.01194,63.013223 17.703097,69.493602 9.135597,73.361087 11.725077,66.056103 19.437176,61.792402 19.437176,62.671787 " />
      <polyline
         id="Path-22"
         points="20.0119399 63.0132234 50.162051 72.457238 48.1433679 79.2298582" />
      <polygon
         id="Path-23"
         points="50.162051,72.457238 48.143368,79.229858 51.655432,86.935313 53.622802,79.654526 51.169277,72.457238 50.749246,72.798143 " />
      <polygon
         id="Path-24"
         points="55.660588,55.449236 47.564901,61.792402 37.198254,61.572149 28.515166,55.860343 25.715143,45.762972 28.515166,35.756736 37.198254,29.753486 47.564901,29.467626 56.054902,35.976989 59.393188,45.762972 " />
      <polygon
         id="Path-25"
         points="57.095455,44.601982 54.029607,36.156483 46.679347,30.329461 37.689436,30.718762 29.991884,35.768511 27.611361,44.573263 29.991884,53.180971 37.689436,58.220615 46.794141,58.817065 54.029607,53.180971 " />
      <polyline
         id="Path-26"
         points="29.9918837 35.768511 51.6554321 51.6788103 54.0296066 53.1809711 55.6605883 55.4492364 60.9037621 59.3313474" />
      <polyline
         id="Path-27"
         points="47.5649009 61.792402 46.7941406 58.8170654 37.6894355 30.7187619 37.1982544 29.753486 35.285943 23.8424343" />
      <polyline
         id="Path-28"
         points="60.9037621 32.1363613 56.0549022 35.9769893 53.8936523 35.9769893 29.9918837 53.1809711 28.5151663 55.8603429 19.4371759 62.6717869" />
      <polyline
         id="Path-29"
         points="19.3541221 29.0474784 28.5151663 35.7567361 29.9918837 35.768511" />
      <polygon
         id="Path-30"
         points="50.749246,72.798143 70.623964,45.630014 50.886788,18.207138 19.354122,29.047478 19.437176,62.671787 " />
      <polygon
         id="Path-31"
         points="-3.6415315e-14,43.404636 3.99877,66.558974 11.893946,61.792402 11.399188,29.047478 3.5782407,21.246308 " />
      <polygon
         id="Path-32"
         points="9.135597,54.589119 7.0723755,58.817065 4.8937043,58.182874 3.0161381,52.251959 2.0350149,43.902641 2.7970559,35.768511 4.349261,30.329461 6.8862052,30.329461 9.135597,35.768511 9.79549,45.098753 " />
      <polygon
         id="Path-33"
         points="68.603749,73.398933 64.120397,77.221379 62.119824,76.633301 63.353866,71.759582 69.110778,63.013223 74.545633,56.710226 78.867358,53.878974 80.478539,55.237878 78.165478,60.21461 74.041597,67.049455 " />
      <polygon
         id="Path-34"
         points="38.016151,83.420102 43.794613,83.860633 44.227414,81.915257 40.982005,79.229858 32.429247,75.788752 23.561016,73.58134 18.092938,73.58134 17.678395,75.36778 22.517924,78.214457 29.991884,81.225875 " />
      <polygon
         id="Path-45"
         points="41.009259,10.265557 44.572107,6.2999405 43.650621,3.6116944 37.570317,3.6116944 29.584818,5.0959572 22.035147,8.5806304 17.267982,12.464194 17.615189,15.083294 22.802828,16.119472 32.346315,14.291833 " />
      <polygon
         id="Path-46"
         points="8.5403913,14.26042 28.75707,2.6353497 51.792888,-9.5923269e-14 48.298458,11.011615 17.267982,21.246308 " />
      <polyline
         id="Path-47"
         points="8.54039129 14.2604203 11.3729997 21.5760304 19.9098822 29.0474784" />
      <path
         d="m 17.267982,21.246308 2.6419,7.411543"
         id="Path-48"
         inkscape:connector-curvature="0" />
      <path
         d="m 48.298458,11.011615 2.104157,7.409054"
         id="Path-49"
         inkscape:connector-curvature="0" />
      <path
         d="m 3.5782407,21.246308 7.8645233,0.407641"
         id="Path-51"
         inkscape:connector-curvature="0" />
      <path
         d=""
         id="Path-56"
         inkscape:connector-curvature="0" />
      <path
         d="m 19.354122,61.179723 -7.460176,0.478234"
         id="Path-62"
         inkscape:connector-curvature="0" />
      <path
         d="m 3.99877,66.558974 7.726307,-0.502871"
         id="Path-63"
         inkscape:connector-curvature="0" />
      <polyline
         id="Path-64"
         points="6.44604998 66.4195061 6.92992943 69.3531413 10.0012093 70.8505686" />
      <path
         d="M 6.9299294,69.353141 11.725077,66.056103"
         id="Path-65"
         inkscape:connector-curvature="0" />
      <polyline
         id="Path-76"
         points="53.6228017 79.6962753 59.3931883 84.32882 75.5764595 68.1533511 86.2155935 48.414317 76.4347195 50.3007482 57.3874237 76.2892218 51.6554321 71.7708363" />
      <path
         d="m 57.387424,76.289222 2.005764,8.039598"
         id="Path-77"
         inkscape:connector-curvature="0" />
      <path
         d="m 62.356608,75.643656 1.763789,1.577723"
         id="Path-78"
         inkscape:connector-curvature="0" />
      <path
         d="M 76.434719,50.300748 70.351198,46.145566"
         id="Path-88"
         inkscape:connector-curvature="0" />
      <polyline
         id="Path-89"
         points="86.2155935 48.414317 79.8358078 43.8481006 70.1161929 44.9473645" />
      <path
         d="m 76.495126,40.516711 -6.375112,4.307336"
         id="Path-90"
         inkscape:connector-curvature="0" />
      <path
         d="m 86.215593,39.944193 -6.379785,3.903908"
         id="Path-91"
         inkscape:connector-curvature="0" />
      <polyline
         id="Path-92"
         points="84.029202 46.8343054 85.6926828 43.7081971 84.4539305 41.0000404" />
      <path
         d="m 79.835808,43.848101 5.856875,-0.139904"
         id="Path-93"
         inkscape:connector-curvature="0" />
      <polyline
         id="Path-104"
         points="59.998899 2.63534972 53.9897162 7.39569585 51.7928881 -2.35367281e-14" />
      <polyline
         id="Path-106"
         points="58.2444063 3.88443129 55.6605883 1.43417323 52.3630746 1.8300131" />
      <path
         d="M 57.696405,14.078257 51.409006,18.85558"
         id="Path-107"
         inkscape:connector-curvature="0" />
      <path
         d=""
         id="Path-118"
         inkscape:connector-curvature="0" />
      <polyline
         id="Path-121"
         points="52.3535841 84.32882 55.3302075 84.8420143 57.5729445 82.8684252" />
      <path
         d="m 53.622802,79.696275 1.707405,5.145739"
         id="Path-122"
         inkscape:connector-curvature="0" />
      <path
         d="m 47.564901,61.792402 3.318184,10.664836"
         id="Path-123"
         inkscape:connector-curvature="0" />
      <polyline
         id="Path-126"
         points="5.64844062 21.4501285 6.30390239 17.7928927 9.13559699 16.1194723" />
      <path
         d="M 11.442764,21.653949 6.3039024,17.792893"
         id="Path-127"
         inkscape:connector-curvature="0" />
      <path
         d="m 11.442764,29.047478 7.994412,0"
         id="Path-128"
         inkscape:connector-curvature="0" />
      <polyline
         id="Path-130"
         points="32.5251251 34.1141286 38.508484 33.2154057 43.975898 30.5145306" />
      <polyline
         id="Path-131"
         points="48.884813 32.1363613 51.8072621 37.4688308 56.1437724 42.1939467" />
      <polyline
         id="Path-132"
         points="70.6239645 45.630014 59.3931883 45.7629721 57.0954551 44.6019819 27.6113612 44.573263 25.7151428 45.7629721 19.4371759 45.7629721" />
      <polyline
         id="Path-133"
         points="29.4003665 37.8500873 30.2150627 44.573263 29.5513846 51.3897978" />
      <polyline
         id="Path-134"
         points="32.4741223 54.7876646 38.4399122 55.9853654 44.5521648 58.6882792" />
      <polyline
         id="Path-135"
         points="56.4136087 46.5726248 51.7887102 51.772325 48.5473061 57.3962365" />
    </g>
  </g>
</svg>
