<?xml version="1.0" encoding="UTF-8" standalone="no"?>
<svg
   xmlns:dc="http://purl.org/dc/elements/1.1/"
   xmlns:cc="http://creativecommons.org/ns#"
   xmlns:rdf="http://www.w3.org/1999/02/22-rdf-syntax-ns#"
   xmlns:svg="http://www.w3.org/2000/svg"
   xmlns="http://www.w3.org/2000/svg"
   xmlns:sodipodi="http://sodipodi.sourceforge.net/DTD/sodipodi-0.dtd"
   xmlns:inkscape="http://www.inkscape.org/namespaces/inkscape"
   width="88"
   height="90"
   viewBox="0 0 88 90"
   version="1.1"
   id="svg2"
   inkscape:version="0.91 r13725"
   sodipodi:docname="2.svg">
  <metadata
     id="metadata46">
    <rdf:RDF>
      <cc:Work
         rdf:about="">
        <dc:format>image/svg+xml</dc:format>
        <dc:type
           rdf:resource="http://purl.org/dc/dcmitype/StillImage" />
        <dc:title>D - 1</dc:title>
      </cc:Work>
    </rdf:RDF>
  </metadata>
  <defs
     id="defs44" />
  <sodipodi:namedview
     pagecolor="#ffffff"
     bordercolor="#666666"
     borderopacity="1"
     objecttolerance="10"
     gridtolerance="10"
     guidetolerance="10"
     inkscape:pageopacity="0"
     inkscape:pageshadow="2"
     inkscape:window-width="1476"
     inkscape:window-height="783"
     id="namedview42"
     showgrid="false"
     inkscape:zoom="2.7126437"
     inkscape:cx="43"
     inkscape:cy="43.5"
     inkscape:window-x="0"
     inkscape:window-y="0"
     inkscape:window-maximized="0"
     inkscape:current-layer="svg2" />
  <!-- Generator: Sketch 53.2 (72643) - https://sketchapp.com -->
  <title
     id="title4">D - 1</title>
  <desc
     id="desc6">Created with Sketch.</desc>
  <g
     id="Page-1"
     style="fill:none;fill-rule:evenodd;stroke:none;stroke-width:1"
     transform="translate(0.84068426,1.6793169)">
    <g
       id="D---1"
       transform="translate(0.927334,0)"
       style="stroke:#ff8d00">
      <polygon
         id="Path-171"
         points="35.606797,70.520002 34.774778,61.38442 35.075256,48.797661 37.13028,34.989541 40.110549,22.663041 43.153747,14.871184 32.031152,12.724711 21.877739,28.445563 17.494273,41.410366 15.660587,46.833786 14.3745,64.361677 17.655095,77.171569 24.827862,82.896887 33.851946,82.594803 38.825969,76.222968 37.620522,74.421992 " />
      <polyline
         id="Path-172"
         points="43.1537466 14.8711839 46.0857826 14.2305756 48.5426486 31.5444251 50.1671194 51.6726323 50.4292342 69.7225562 49.866642 81.791828 47.8338503 86.7897848 38.8259695 76.2229685" />
      <polyline
         id="Path-173"
         points="46.0857826 14.2305756 55.9577115 33.8844826 59.9064077 46.9084161 60.7798763 59.3436416 58.7770783 68.5739316 49.866642 81.791828" />
      <polyline
         id="Path-174"
         points="46.0857826 14.2305756 58.1116143 11.1790679 71.3183997 25.0978073 79.2772137 41.9441756 80.9077136 58.2499479 76.5234136 70.9776332 67.3173255 78.8376807 55.7455618 80.3984767 52.8862521 77.2249844" />
      <path
         d="m 55.669444,73.309735 11.647881,5.527946"
         id="Path-175"
         inkscape:connector-curvature="0" />
      <path
         d="M 76.523414,70.977633 58.777078,68.573932"
         id="Path-176"
         inkscape:connector-curvature="0" />
      <polyline
         id="Path-177"
         points="80.9077136 58.2499479 60.7798763 59.3436416 50.4292342 69.7225562 34.7747783 61.3844203 14.3745001 64.3616765" />
      <polyline
         id="Path-178"
         points="49.866642 81.791828 35.6067967 70.5200017 17.6550946 77.1715688" />
      <path
         d="m 24.827862,82.896887 12.79266,-8.474895"
         id="Path-179"
         inkscape:connector-curvature="0" />
      <polyline
         id="Path-180"
         points="15.6605866 46.8337858 35.0752556 48.7976612 50.1671194 51.6726323 59.9064077 46.9084161 79.2772137 41.9441756" />
      <polyline
         id="Path-181"
         points="21.8777389 28.4455632 37.1302797 34.9895414 48.5204162 31.7175523 55.9577115 33.8844826 71.3183997 25.0978073" />
      <polyline
         id="Path-182"
         points="32.0311523 12.7247106 40.1105487 22.6630413 46.0857826 14.2305756" />
      <path
         d="m 58.111614,11.179068 -8.04388,10.956638"
         id="Path-183"
         inkscape:connector-curvature="0" />
      <polyline
         id="Path-184"
         points="43.1537466 14.8711839 25.4468638 7.71835563 10.731282 17.6938759 1.85988386 32.0295459 -8.52651283e-14 46.808404 4.85007 60.6428786 16.2365633 71.735005" />
      <path
         d="m 4.85007,60.642879 9.751108,0.810498"
         id="Path-185"
         inkscape:connector-curvature="0" />
      <path
         d="m 0,46.808404 15.246625,5.860843"
         id="Path-186"
         inkscape:connector-curvature="0" />
      <path
         d="M 1.8598839,32.029546 17.372153,41.537353"
         id="Path-187"
         inkscape:connector-curvature="0" />
      <path
         d="M 10.731282,17.693876 21.877739,28.445563"
         id="Path-188"
         inkscape:connector-curvature="0" />
      <path
         d="m 25.446864,7.7183556 4.349114,8.2919554"
         id="Path-189"
         inkscape:connector-curvature="0" />
      <polyline
         id="Path-190"
         points="15.1392483 14.7290601 18.6818471 8.39899268 29.414896 2.64483276 43.1537466 14.8711839" />
      <path
         d="m 18.681847,8.3989927 0.95678,3.4653403"
         id="Path-191"
         inkscape:connector-curvature="0" />
      <path
         d="m 29.414896,2.6448328 0.801006,7.0492009"
         id="Path-192"
         inkscape:connector-curvature="0" />
      <path
         d=""
         id="Path-193"
         inkscape:connector-curvature="0" />
      <path
         d="m 43.153747,14.871184 17.626129,-9.1974436 14.00215,8.2553566 8.103228,12.539984 1.580554,14.252414 c -2.65988,8.085006 -3.98982,12.127509 -3.98982,12.127509"
         id="Path-194"
         inkscape:connector-curvature="0" />
      <path
         d="m 84.465808,40.721495 -4.953934,3.367653"
         id="Path-195"
         inkscape:connector-curvature="0" />
      <path
         d="m 82.885254,26.469081 -7.486788,7.256052"
         id="Path-196"
         inkscape:connector-curvature="0" />
      <path
         d="m 74.782026,13.929097 -5.940321,8.743882"
         id="Path-197"
         inkscape:connector-curvature="0" />
      <path
         d="M 60.779876,5.6737404 C 59.276567,9.6154346 58.524913,11.586282 58.524913,11.586282"
         id="Path-198"
         inkscape:connector-curvature="0" />
      <polyline
         id="Path-199"
         points="43.1537466 14.8711839 53.4328294 1.14007297 60.7798763 5.6737404" />
      <path
         d="m 53.432829,1.140073 c 0.229902,5.486732 0.344852,8.230098 0.344852,8.230098"
         id="Path-200"
         inkscape:connector-curvature="0" />
      <polyline
         id="Path-201"
         points="35.8882704 8.39899268 40.7370878 8.97060204e-14 45.7853052 11.3093209" />
      <polyline
         id="Path-202"
         points="37.7412593 10.1036407 40.7370878 -1.33226763e-14 43.1537466 14.8711839" />
    </g>
  </g>
</svg>
