<?xml version="1.0" encoding="UTF-8" standalone="no"?>
<svg
   xmlns:dc="http://purl.org/dc/elements/1.1/"
   xmlns:cc="http://creativecommons.org/ns#"
   xmlns:rdf="http://www.w3.org/1999/02/22-rdf-syntax-ns#"
   xmlns:svg="http://www.w3.org/2000/svg"
   xmlns="http://www.w3.org/2000/svg"
   xmlns:sodipodi="http://sodipodi.sourceforge.net/DTD/sodipodi-0.dtd"
   xmlns:inkscape="http://www.inkscape.org/namespaces/inkscape"
   width="88"
   height="90"
   viewBox="0 0 88 90"
   version="1.1"
   id="svg2"
   inkscape:version="0.91 r13725"
   sodipodi:docname="3.svg">
  <metadata
     id="metadata72">
    <rdf:RDF>
      <cc:Work
         rdf:about="">
        <dc:format>image/svg+xml</dc:format>
        <dc:type
           rdf:resource="http://purl.org/dc/dcmitype/StillImage" />
        <dc:title>E - 1</dc:title>
      </cc:Work>
    </rdf:RDF>
  </metadata>
  <defs
     id="defs70" />
  <sodipodi:namedview
     pagecolor="#ffffff"
     bordercolor="#666666"
     borderopacity="1"
     objecttolerance="10"
     gridtolerance="10"
     guidetolerance="10"
     inkscape:pageopacity="0"
     inkscape:pageshadow="2"
     inkscape:window-width="1534"
     inkscape:window-height="764"
     id="namedview68"
     showgrid="false"
     inkscape:zoom="2.7126437"
     inkscape:cx="-21.144068"
     inkscape:cy="43.5"
     inkscape:window-x="0"
     inkscape:window-y="0"
     inkscape:window-maximized="0"
     inkscape:current-layer="svg2" />
  <!-- Generator: Sketch 53.2 (72643) - https://sketchapp.com -->
  <title
     id="title4">E - 1</title>
  <desc
     id="desc6">Created with Sketch.</desc>
  <g
     id="Page-1"
     style="fill:none;fill-rule:evenodd;stroke:none;stroke-width:1"
     transform="translate(1.4309318,1.3960837)">
    <g
       id="E---1"
       transform="translate(0.630166,1)"
       style="stroke:#f9bb00">
      <path
         d="M 3.2581581,56.626367 82.978273,30.29557"
         id="Path-137"
         inkscape:connector-curvature="0" />
      <path
         d="m 41.997889,0.2212264 0.09386,84.7642206"
         id="Path-138"
         inkscape:connector-curvature="0" />
      <path
         d="M 65.838375,10.446735 16.828009,79.013131"
         id="Path-139"
         inkscape:connector-curvature="0" />
      <path
         d="M 80.926829,56.332303 1.0043353,30.29557"
         id="Path-140"
         inkscape:connector-curvature="0" />
      <path
         d="M 67.503843,78.894328 17.914116,10.446735"
         id="Path-141"
         inkscape:connector-curvature="0" />
      <polygon
         id="Path-142"
         points="47.023323,14.561126 41.997889,15.860718 37.209501,14.561126 38.081055,11.279138 41.997889,8.7432142 46.02653,11.279138 " />
      <path
         d="M 40.343902,15.365225 38.081055,11.279138"
         id="Path-143"
         inkscape:connector-curvature="0" />
      <path
         d="M 43.922421,15.365225 46.02653,11.279138"
         id="Path-144"
         inkscape:connector-curvature="0" />
      <polygon
         id="polygon18"
         transform="matrix(0.81915204,0.57357644,0.57357644,-0.81915204,-35.446505,112.42195)"
         points="28.872528,71.587819 23.830332,72.90178 19.034753,71.622028 19.919791,68.344954 23.854959,65.80152 27.884658,68.317258 " />
      <path
         d="m 23.289022,68.876926 -2.254231,-4.0683"
         id="path20"
         transform="matrix(0.81915204,0.57357644,0.57357644,-0.81915204,-34.331506,108.88563)"
         inkscape:connector-curvature="0" />
      <path
         d="M 25.820167,72.214001 27.943549,68.13048"
         id="path22"
         transform="matrix(0.81915204,0.57357644,0.57357644,-0.81915204,-35.387615,112.23518)"
         inkscape:connector-curvature="0" />
      <polygon
         id="polygon24"
         transform="matrix(0.30901699,-0.95105652,0.95105652,0.30901699,-23.603855,35.338821)"
         points="17.45777,36.146525 12.3958,37.448417 7.5780914,36.167922 8.4625981,32.905896 12.411204,30.378324 16.46139,32.888572 " />
      <path
         d="M 13.719562,39.033166 11.450374,34.979231"
         id="path26"
         transform="matrix(0.30901699,-0.95105652,0.95105652,0.30901699,-26.498987,37.53967)"
         inkscape:connector-curvature="0" />
      <path
         d="M 13.301987,33.517287 15.429059,29.45383"
         id="path28"
         transform="matrix(0.30901699,-0.95105652,0.95105652,0.30901699,-20.018213,35.41841)"
         inkscape:connector-curvature="0" />
      <polygon
         id="polygon30"
         transform="matrix(-0.81915204,0.57357644,-0.57357644,-0.81915204,149.77398,91.479746)"
         points="65.38415,71.587819 60.341953,72.90178 55.546374,71.622028 56.431412,68.344954 60.36658,65.80152 64.396279,68.317258 " />
      <path
         d="m 63.384112,68.876926 -2.254232,-4.0683"
         id="path32"
         transform="matrix(-0.81915204,0.57357644,-0.57357644,-0.81915204,151.59438,85.888027)"
         inkscape:connector-curvature="0" />
      <path
         d="M 56.475354,72.214001 58.598736,68.13048"
         id="path34"
         transform="matrix(-0.81915204,0.57357644,-0.57357644,-0.81915204,144.91778,94.652082)"
         inkscape:connector-curvature="0" />
      <polygon
         id="polygon36"
         transform="matrix(0.30901699,0.95105652,-0.95105652,0.30901699,82.048338,-44.685359)"
         points="76.716068,36.377314 71.659723,37.657292 66.83639,36.355916 67.70669,33.09769 71.644319,30.587198 75.705482,33.115014 " />
      <path
         d="M 71.057407,33.682546 68.770532,29.618743"
         id="path38"
         transform="matrix(0.30901699,0.95105652,-0.95105652,0.30901699,78.410916,-44.62208)"
         inkscape:connector-curvature="0" />
      <path
         d="m 70.639833,39.198425 2.109384,-4.054281"
         id="path40"
         transform="matrix(0.30901699,0.95105652,-0.95105652,0.30901699,84.89169,-42.50082)"
         inkscape:connector-curvature="0" />
      <polyline
         id="Path-145"
         points="16.1682804 29.905387 28.6361435 25.3643256 37.2095006 14.561126" />
      <polyline
         id="Path-146"
         points="47.0233231 14.561126 55.3916169 25.0964305 68.1253871 30.1144211" />
      <polyline
         id="Path-147"
         points="71.158025 39.5171655 63.6670348 50.7064923 63.1923438 64.6705078" />
      <polyline
         id="Path-148"
         points="55.153331 70.3412461 42.0917515 66.4481736 29.2655714 70.3412461" />
      <polygon
         id="Path-149"
         points="71.158025,64.880847 79.07659,60.052529 80.926829,56.332303 81.529881,52.36957 77.955845,43.672362 83.882992,34.525954 82.978273,30.295571 81.529881,26.41315 70.951661,22.337774 68.715157,13.290576 65.838375,10.446735 62.318356,8.7294742 53.197355,9.3603642 46.02653,0.58410311 41.997889,0.2212264 38.081055,0.58410311 30.808991,9.3603642 21.360757,8.7294742 17.914116,10.446735 15.092297,13.322182 12.855353,22.337774 2.6917843,26.41315 1.0043353,30.295571 9.9475983e-14,34.173833 5.9903641,43.891052 2.6917843,52.36957 3.2581581,56.626367 4.8902997,60.052529 12.855353,65.154653 13.557194,76.087078 16.828009,79.013131 20.461931,81.257024 31.070073,78.128725 38.500054,84.549932 42.091752,84.985447 46.151809,84.549932 53.197355,78.128725 64.347016,81.060795 67.503843,78.894329 70.70334,76.087078 " />
      <path
         d="M 46.02653,0.58410311 49.70695,17.988461"
         id="Path-150"
         inkscape:connector-curvature="0" />
      <path
         d="M 53.197355,9.3603642 52.603088,21.707878"
         id="Path-151"
         inkscape:connector-curvature="0" />
      <path
         d="M 38.081055,0.58410311 34.287797,18.245073"
         id="Path-152"
         inkscape:connector-curvature="0" />
      <path
         d="m 30.699829,9.4145883 0.56463,12.5675097"
         id="Path-153"
         inkscape:connector-curvature="0" />
      <path
         d="m 70.951661,22.337774 -11.480116,4.36916"
         id="Path-154"
         inkscape:connector-curvature="0" />
      <path
         d="M 81.529881,26.41315 64.069113,28.516439"
         id="Path-155"
         inkscape:connector-curvature="0" />
      <path
         d="M 83.882992,34.525954 68.77824,43.040235"
         id="Path-156"
         inkscape:connector-curvature="0" />
      <path
         d="M 77.955845,43.672362 65.965811,47.264236"
         id="Path-157"
         inkscape:connector-curvature="0" />
      <path
         d="M 71.158025,64.880847 63.477832,55.17682"
         id="Path-158"
         inkscape:connector-curvature="0" />
      <path
         d="M 70.70334,76.087078 63.351844,60.028833"
         id="Path-159"
         inkscape:connector-curvature="0" />
      <path
         d="M 64.347016,81.060795 51.056537,69.170112"
         id="Path-160"
         inkscape:connector-curvature="0" />
      <path
         d="M 53.197355,78.128725 45.9232,67.570112"
         id="Path-161"
         inkscape:connector-curvature="0" />
      <path
         d="M 20.461931,81.257024 33.341055,69.170112"
         id="Path-162"
         inkscape:connector-curvature="0" />
      <path
         d="m 31.070073,78.128725 7.043812,-10.42804"
         id="Path-163"
         inkscape:connector-curvature="0" />
      <polyline
         id="Path-164"
         points="13.1356425 39.3081314 20.6821083 50.8652053 21.2265586 64.6705078" />
      <path
         d="M 13.557194,76.087078 21.040599,60.425929"
         id="Path-165"
         inkscape:connector-curvature="0" />
      <path
         d="M 12.855353,65.154653 20.85143,55.050569"
         id="Path-166"
         inkscape:connector-curvature="0" />
      <path
         d="m 0,34.173833 16.16828,9.768155"
         id="Path-167"
         inkscape:connector-curvature="0" />
      <path
         d="M 5.9903641,43.891052 18.556918,47.600559"
         id="Path-168"
         inkscape:connector-curvature="0" />
      <path
         d="m 2.363063,27.141313 17.787591,1.35969"
         id="Path-169"
         inkscape:connector-curvature="0" />
      <path
         d="m 12.855353,22.337774 11.833454,4.460485"
         id="Path-170"
         inkscape:connector-curvature="0" />
    </g>
  </g>
</svg>
