<?xml version="1.0" encoding="UTF-8" standalone="no"?>
<svg
   xmlns:dc="http://purl.org/dc/elements/1.1/"
   xmlns:cc="http://creativecommons.org/ns#"
   xmlns:rdf="http://www.w3.org/1999/02/22-rdf-syntax-ns#"
   xmlns:svg="http://www.w3.org/2000/svg"
   xmlns="http://www.w3.org/2000/svg"
   xmlns:sodipodi="http://sodipodi.sourceforge.net/DTD/sodipodi-0.dtd"
   xmlns:inkscape="http://www.inkscape.org/namespaces/inkscape"
   width="88"
   height="90"
   viewBox="0 0 88 90"
   version="1.1"
   id="svg2"
   inkscape:version="0.91 r13725"
   sodipodi:docname="4.svg">
  <metadata
     id="metadata45">
    <rdf:RDF>
      <cc:Work
         rdf:about="">
        <dc:format>image/svg+xml</dc:format>
        <dc:type
           rdf:resource="http://purl.org/dc/dcmitype/StillImage" />
        <dc:title>F - 1</dc:title>
      </cc:Work>
    </rdf:RDF>
  </metadata>
  <defs
     id="defs43" />
  <sodipodi:namedview
     pagecolor="#ffffff"
     bordercolor="#666666"
     borderopacity="1"
     objecttolerance="10"
     gridtolerance="10"
     guidetolerance="10"
     inkscape:pageopacity="0"
     inkscape:pageshadow="2"
     inkscape:window-width="1457"
     inkscape:window-height="705"
     id="namedview41"
     showgrid="false"
     inkscape:zoom="2.6516854"
     inkscape:cx="-19.118644"
     inkscape:cy="44.5"
     inkscape:window-x="0"
     inkscape:window-y="0"
     inkscape:window-maximized="0"
     inkscape:current-layer="svg2" />
  <!-- Generator: Sketch 53.2 (72643) - https://sketchapp.com -->
  <title
     id="title4">F - 1</title>
  <desc
     id="desc6">Created with Sketch.</desc>
  <g
     id="Page-1"
     style="fill:none;fill-rule:evenodd;stroke:none;stroke-width:1"
     transform="matrix(0.95225847,0,0,0.97841784,-0.31662136,1.5107865)">
    <g
       id="F---1"
       transform="translate(0.914297,1)"
       style="stroke:#41d803">
      <path
         d="M 45.511311,45.143344 78.279834,35.736746"
         id="Path-257"
         inkscape:connector-curvature="0" />
      <path
         d="M 65.898789,74.503442 45.511311,45.143344"
         id="Path-295"
         inkscape:connector-curvature="0" />
      <path
         d="M 24.776912,74.503442 45.511311,45.143344"
         id="Path-296"
         inkscape:connector-curvature="0" />
      <path
         d="m 12.759213,35.736746 32.752098,9.406598"
         id="Path-297"
         inkscape:connector-curvature="0" />
      <path
         d=""
         id="Path-298"
         inkscape:connector-curvature="0" />
      <path
         d="m 45.511311,45.143344 0,-33.041855"
         id="Path-299"
         inkscape:connector-curvature="0" />
      <polygon
         id="Path-300"
         points="65.898789,74.503442 45.511311,80.62481 24.776912,74.503442 13.216189,56.92812 12.759213,35.736746 25.799933,19.124653 45.511311,12.101489 65.163226,19.124653 78.279834,35.736746 77.772266,56.92812 " />
      <polygon
         id="Path-301"
         points="45.519524,15.086778 27.66003,21.414458 15.585825,36.593534 16.056598,55.769091 26.777288,71.724795 45.511311,77.271905 64.221679,71.956178 74.953642,55.769091 75.586603,36.593534 63.376061,21.414458 " />
      <polygon
         id="Path-302"
         points="31.743242,26.944814 25.782849,39.428359 22.990733,53.178359 33.141435,62.570174 45.511311,69.416592 57.554306,62.570174 67.99148,53.178359 65.266711,39.428359 59.422287,26.944814 45.511311,25.120855 " />
      <polyline
         id="Path-303"
         points="13.2161887 56.92812 16.0565983 55.769091 22.9907326 53.1783589" />
      <polyline
         id="Path-304"
         points="31.7432416 26.9448141 27.6600296 21.4144585 25.7999326 19.1246534" />
      <polyline
         id="Path-305"
         points="59.4222874 26.9448141 63.3760613 21.4144585 65.1632263 19.1246534" />
      <polyline
         id="Path-306"
         points="67.9914805 53.1783589 74.9536421 55.769091 77.7722664 56.92812" />
      <polyline
         id="Path-307"
         points="45.586214 80.6248104 45.586214 77.2719049 45.4911066 69.4165922" />
      <polygon
         id="Path-308"
         points="1.6809601,29.51326 1.0658141e-13,34.232242 3.9083505,37.333508 16.849793,79.173397 15.196317,83.543362 19.376848,86.772295 23.584568,83.931094 67.487535,83.931094 71.314911,86.772295 75.586603,83.543362 73.95338,79.173397 87.004464,37.739562 91.244691,34.770989 89.448476,29.51326 84.602416,30.080968 49.382654,4.9395911 48.164473,-2.1165103e-15 42.780561,-2.8421709e-14 41.530177,4.8990253 6.4797349,29.744643 " />
      <path
         d=""
         id="Path-309"
         inkscape:connector-curvature="0" />
      <polyline
         id="Path-310"
         points="16.8497931 79.1733975 18.7757455 79.6361935 22.3421708 82.2273782 23.5845682 83.9310939" />
      <polyline
         id="Path-311"
         points="19.3768484 86.7722948 22.3421708 82.2273782 25.6772131 74.7452292" />
      <polyline
         id="Path-312"
         points="15.196317 83.5433619 18.7757455 79.6361935 24.776912 74.5034419" />
      <polyline
         id="Path-313"
         points="6.47973488 29.7446432 6.47973488 31.744788 5.01450978 35.7367459 3.90835053 37.3335076" />
      <polyline
         id="Path-314"
         points="12.7592133 36.9206558 5.01450978 35.7367459 -6.03734914e-15 34.2322425" />
      <polyline
         id="Path-315"
         points="1.68096014 29.5132602 6.47973488 31.744788 12.7592133 35.5764492" />
      <polyline
         id="Path-316"
         points="42.7805608 -6.21724894e-14 43.4268723 5.57849199 44.7407212 12.3820369" />
      <polyline
         id="Path-317"
         points="48.1644728 -6.21724894e-14 47.8274273 5.5870181 46.391402 12.3820369" />
      <polyline
         id="Path-318"
         points="41.5301771 4.8990253 43.4268723 5.57849199 47.8274273 5.5870181 49.3826541 4.93959108" />
      <polyline
         id="Path-319"
         points="89.4484756 29.5132602 84.4212164 31.8271153 78.2798344 35.7367459" />
      <polyline
         id="Path-320"
         points="91.2446914 34.7709891 85.8293777 36.1348469 78.2798344 37.0012093" />
      <polyline
         id="Path-321"
         points="87.0044636 37.7395623 85.8293777 36.1348469 84.4212164 31.8271153 84.6024164 30.0809684" />
      <polyline
         id="Path-322"
         points="75.5866031 83.5433619 72.1456002 79.7154345 66.1488318 74.2391371" />
      <polyline
         id="Path-323"
         points="71.3149112 86.7722948 68.4811473 82.3176175 65.027566 74.806908" />
      <polyline
         id="Path-324"
         points="67.4875352 83.9310939 68.4811473 82.3176175 72.1456002 79.7154345 73.9533803 79.1733975" />
    </g>
  </g>
</svg>
