<?xml version="1.0" encoding="UTF-8" standalone="no"?>
<svg
   xmlns:dc="http://purl.org/dc/elements/1.1/"
   xmlns:cc="http://creativecommons.org/ns#"
   xmlns:rdf="http://www.w3.org/1999/02/22-rdf-syntax-ns#"
   xmlns:svg="http://www.w3.org/2000/svg"
   xmlns="http://www.w3.org/2000/svg"
   xmlns:sodipodi="http://sodipodi.sourceforge.net/DTD/sodipodi-0.dtd"
   xmlns:inkscape="http://www.inkscape.org/namespaces/inkscape"
   width="88"
   height="90"
   viewBox="0 0 88 90"
   version="1.1"
   id="svg2"
   inkscape:version="0.91 r13725"
   sodipodi:docname="5.svg">
  <metadata
     id="metadata26">
    <rdf:RDF>
      <cc:Work
         rdf:about="">
        <dc:format>image/svg+xml</dc:format>
        <dc:type
           rdf:resource="http://purl.org/dc/dcmitype/StillImage" />
        <dc:title>G - 1</dc:title>
      </cc:Work>
    </rdf:RDF>
  </metadata>
  <defs
     id="defs24" />
  <sodipodi:namedview
     pagecolor="#ffffff"
     bordercolor="#666666"
     borderopacity="1"
     objecttolerance="10"
     gridtolerance="10"
     guidetolerance="10"
     inkscape:pageopacity="0"
     inkscape:pageshadow="2"
     inkscape:window-width="1347"
     inkscape:window-height="802"
     id="namedview22"
     showgrid="false"
     inkscape:zoom="2.7126437"
     inkscape:cx="-28.144068"
     inkscape:cy="43.5"
     inkscape:window-x="0"
     inkscape:window-y="0"
     inkscape:window-maximized="0"
     inkscape:current-layer="svg2" />
  <!-- Generator: Sketch 53.2 (72643) - https://sketchapp.com -->
  <title
     id="title4">G - 1</title>
  <desc
     id="desc6">Created with Sketch.</desc>
  <g
     id="Page-1"
     style="fill:none;fill-rule:evenodd;stroke:none;stroke-width:1"
     transform="translate(7.9138818,1.6988842)">
    <g
       id="G---1"
       transform="translate(1.059489,1)"
       style="stroke:#00b7ff">
      <path
         d=""
         id="Path-3"
         inkscape:connector-curvature="0" />
      <polygon
         id="Path-4"
         points="49.805174,83.230063 43.69249,84.652246 8.3027768,72.430039 0.19675474,46.379014 10.927052,16.346591 16.141005,13.668815 16.725584,12.43408 26.76097,6.6476467 50.728969,-1.1368684e-13 61.743406,13.668815 69.855422,39.673184 58.925436,69.122682 " />
      <path
         d=""
         id="Path-5"
         inkscape:connector-curvature="0" />
      <polyline
         id="Path-6"
         points="0.196754744 46.3790138 16.1410046 13.6688154 8.16887968 39.4188792 8.30277683 72.4300386" />
      <polygon
         id="Path-8"
         points="21.950659,24.566956 18.860281,47.155045 47.947715,61.161296 51.216467,38.826651 " />
      <polygon
         id="Path-9"
         points="44.450242,35.685811 44.450242,51.752302 28.238344,51.752302 25.913727,50.466403 25.913727,33.898499 40.667465,33.898499 " />
      <polyline
         id="Path-10"
         points="44.4502416 51.7523023 53.1359062 73.5145241 8.16887968 39.4188792" />
      <path
         d="m 16.725584,12.894115 9.188143,21.004384"
         id="Path-11"
         inkscape:connector-curvature="0" />
      <path
         d="M 8.1688797,39.418879 19.695091,76.454895"
         id="Path-12"
         inkscape:connector-curvature="0" />
      <polyline
         id="Path-13"
         points="43.6924897 84.6522457 53.1359062 73.5145241 61.5631202 46.3790138 50.7289691 5.68434189e-14" />
      <polyline
         id="Path-14"
         points="61.7434063 13.6688154 61.7434063 46.3790138 16.7255837 12.8941149" />
      <path
         d="M 69.855422,39.673184 53.135906,73.514524"
         id="Path-15"
         inkscape:connector-curvature="0" />
    </g>
  </g>
</svg>
