<?xml version="1.0" encoding="UTF-8" standalone="no"?>
<svg
   xmlns:dc="http://purl.org/dc/elements/1.1/"
   xmlns:cc="http://creativecommons.org/ns#"
   xmlns:rdf="http://www.w3.org/1999/02/22-rdf-syntax-ns#"
   xmlns:svg="http://www.w3.org/2000/svg"
   xmlns="http://www.w3.org/2000/svg"
   xmlns:sodipodi="http://sodipodi.sourceforge.net/DTD/sodipodi-0.dtd"
   xmlns:inkscape="http://www.inkscape.org/namespaces/inkscape"
   width="88"
   height="90"
   viewBox="0 0 88 90"
   version="1.1"
   id="svg2"
   inkscape:version="0.91 r13725"
   sodipodi:docname="6.svg">
  <metadata
     id="metadata109">
    <rdf:RDF>
      <cc:Work
         rdf:about="">
        <dc:format>image/svg+xml</dc:format>
        <dc:type
           rdf:resource="http://purl.org/dc/dcmitype/StillImage" />
        <dc:title>A - 1</dc:title>
      </cc:Work>
    </rdf:RDF>
  </metadata>
  <defs
     id="defs107" />
  <sodipodi:namedview
     pagecolor="#ffffff"
     bordercolor="#666666"
     borderopacity="1"
     objecttolerance="10"
     gridtolerance="10"
     guidetolerance="10"
     inkscape:pageopacity="0"
     inkscape:pageshadow="2"
     inkscape:window-width="1276"
     inkscape:window-height="717"
     id="namedview105"
     showgrid="false"
     inkscape:zoom="2.744186"
     inkscape:cx="-20.90678"
     inkscape:cy="43"
     inkscape:window-x="0"
     inkscape:window-y="0"
     inkscape:window-maximized="0"
     inkscape:current-layer="svg2" />
  <!-- Generator: Sketch 53.2 (72643) - https://sketchapp.com -->
  <title
     id="title4">A - 1</title>
  <desc
     id="desc6">Created with Sketch.</desc>
  <g
     id="Page-1"
     style="fill:none;fill-rule:evenodd;stroke:none;stroke-width:1"
     transform="translate(1.3752292,1.9270039)">
    <g
       id="A---1"
       transform="translate(0.794102,1)"
       style="stroke:#5862ff">
      <polygon
         id="Path-38"
         points="41.635935,32.588909 33.899954,42.708731 41.971883,53.009914 49.414371,42.708731 " />
      <polygon
         id="Path-39"
         points="58.764912,39.862494 50.290684,29.112035 60.980118,30.055465 " />
      <path
         d="m 49.414371,42.708731 9.350541,-2.373467"
         id="Path-40"
         inkscape:connector-curvature="0" />
      <path
         d="m 50.290684,29.112035 -8.633522,3.476874"
         id="Path-41"
         inkscape:connector-curvature="0" />
      <polygon
         id="Path-42"
         points="24.10838,41.101642 32.238449,29.628969 21.438489,30.850472 " />
      <polygon
         id="Path-43"
         points="32.946999,56.823261 24.267014,45.488783 22.044654,55.487786 " />
      <polygon
         id="Path-44"
         points="61.621809,55.065289 50.816175,56.485807 58.764912,44.97086 " />
      <path
         d="m 24.267014,45.488783 9.63294,-2.689372"
         id="Path-52"
         inkscape:connector-curvature="0" />
      <path
         d="m 24.10838,41.101642 9.791574,1.697769"
         id="Path-53"
         inkscape:connector-curvature="0" />
      <path
         d="m 32.238449,29.628969 9.418713,2.95994"
         id="Path-54"
         inkscape:connector-curvature="0" />
      <path
         d="M 58.764912,44.97086 49.414371,42.708731"
         id="Path-55"
         inkscape:connector-curvature="0" />
      <path
         d="M 50.816175,56.485807 41.971883,53.009914"
         id="Path-57"
         inkscape:connector-curvature="0" />
      <path
         d="m 32.946999,56.823261 9.024884,-3.813347"
         id="Path-58"
         inkscape:connector-curvature="0" />
      <path
         d="M 41.657162,32.588909 40.247546,18.875274"
         id="Path-67"
         inkscape:connector-curvature="0" />
      <polyline
         id="Path-68"
         points="40.2475458 18.8752742 40.2475458 15.6958609 40.9523541 9.80188457e-14" />
      <polygon
         id="Path-69"
         points="40.247546,17.373334 42.592454,16.740254 43.270055,0.72130441 40.952354,-1.0658141e-13 38.156047,0.91597078 37.916408,16.740254 " />
      <polyline
         id="Path-70"
         points="38.1560472 0.915970779 31.954723 0.915970779 32.6551609 18.8752742 37.9164079 16.7402542" />
      <polyline
         id="Path-71"
         points="42.5924543 16.7402542 50.7864657 18.8752742 50.1948045 0.547715597 43.270055 0.721304405" />
      <polyline
         id="Path-72"
         points="31.954723 2.53623336 28.5201434 3.07039909 28.5201434 11.5919083" />
      <polyline
         id="Path-73"
         points="50.240028 2.17129036 53.3921487 2.53623336 52.7157498 15.9871829" />
      <polyline
         id="Path-74"
         points="50.7864657 18.8752742 59.5231587 5.64728204 67.6829144 11.5136202 64.1048517 16.874699" />
      <polyline
         id="Path-75"
         points="59.5231587 5.64728204 60.3990816 8.68666699 51.215112 22.6147223" />
      <path
         d="M 67.682914,11.51362 60.399082,8.686667"
         id="Path-79"
         inkscape:connector-curvature="0" />
      <polyline
         id="Path-80"
         points="53.1241132 15.3696103 53.5916728 19.0769388 55.4653667 19.8074917" />
      <polyline
         id="Path-81"
         points="50.7864657 18.8752742 51.215112 22.6147223 51.4152371 29.1120348" />
      <polyline
         id="Path-82"
         points="51.215112 22.6147223 62.5329982 14.9816325 69.8329071 23.2384677 63.3052528 25.7320916 56.9139995 29.728593" />
      <path
         d="m 62.532998,14.981633 0.772255,10.750459"
         id="Path-83"
         inkscape:connector-curvature="0" />
      <path
         d="m 53.935581,20.805364 0.359159,8.601002"
         id="Path-84"
         inkscape:connector-curvature="0" />
      <polyline
         id="Path-85"
         points="32.6551609 18.8752742 25.0466009 5.44561738 14.9072812 11.3119555 18.6445005 17.373334" />
      <polyline
         id="Path-86"
         points="32.6551609 18.8752742 30.5870866 24.420296 30.9859412 29.8411684" />
      <polyline
         id="Path-87"
         points="33.8999535 42.7994114 16.8839865 42.7994114 2.48689958e-14 43.1253951" />
      <polygon
         id="Path-94"
         points="0.74943105,45.488783 0.74943105,52.079151 19.206847,51.156022 17.600924,44.879745 18.763762,42.799411 17.600924,40.326076 18.763762,34.050241 0.45735955,34.050241 0.74943105,40.653193 3.126388e-13,43.125395 " />
      <polyline
         id="Path-95"
         points="2.08920339 34.0502406 2.58431624 30.2296677 9.73274268 30.2296677" />
      <polyline
         id="Path-96"
         points="2.55163428 52.079151 3.13333552 55.4064128 10.759313 55.4064128" />
      <polyline
         id="Path-97"
         points="0.749431047 40.6531933 17.6009235 40.3260759 18.7160543 42.7994114 17.6009235 44.8797455 0.749431047 45.4887828" />
      <path
         d="m 20.522014,42.799411 3.385117,-2.473335"
         id="Path-98"
         inkscape:connector-curvature="0" />
      <path
         d="m 20.522014,42.799411 3.745,2.689372"
         id="Path-99"
         inkscape:connector-curvature="0" />
      <polyline
         id="Path-100"
         points="25.4453441 45.1814539 27.0608936 42.7994114 26.2425311 41.5229437" />
      <polyline
         id="Path-101"
         points="14.9072812 11.3119555 22.2145724 10.9310586 25.0466009 5.44561738" />
      <path
         d="m 22.214572,10.931059 8.372515,13.489237"
         id="Path-102"
         inkscape:connector-curvature="0" />
      <polyline
         id="Path-103"
         points="13.3217446 23.3084121 19.565859 16.4245887 30.5870866 24.420296" />
      <path
         d="M 13.321745,23.308412 24.10838,30.538343"
         id="Path-108"
         inkscape:connector-curvature="0" />
      <polyline
         id="Path-109"
         points="13.3217446 23.3084121 19.976941 25.7320916 19.565859 16.4245887" />
      <polyline
         id="Path-110"
         points="15.6148534 20.8053639 9.73274268 18.0326931 5.18752002 28.2831188 18.7150624 34.0502406" />
      <polyline
         id="Path-111"
         points="5.18752002 28.2831188 10.8186986 24.420296 9.73274268 18.0326931" />
      <path
         d="M 10.818699,24.420296 24.10838,30.538343"
         id="Path-112"
         inkscape:connector-curvature="0" />
      <path
         d="m 18.763762,34.050241 3.190654,-1.506958"
         id="Path-113"
         inkscape:connector-curvature="0" />
      <path
         d="m 19.206847,51.156022 3.330746,1.96264"
         id="Path-114"
         inkscape:connector-curvature="0" />
      <polyline
         id="Path-115"
         points="19.2068471 51.1560216 5.97596744 57.7697092 10.759313 68.0971903 16.3604237 65.2520477" />
      <polyline
         id="Path-116"
         points="22.945373 55.5918634 11.6158945 61.6862464 10.759313 68.0971903" />
      <path
         d="m 5.9759674,57.769709 5.6399276,3.916537"
         id="Path-117"
         inkscape:connector-curvature="0" />
      <polyline
         id="Path-119"
         points="14.2809672 62.8893435 20.7095148 69.5054335 31.334519 60.6400641 31.6224147 56.6223165" />
      <path
         d="M 14.280967,62.889344 23.795765,55.77168"
         id="Path-120"
         inkscape:connector-curvature="0" />
      <polygon
         id="Path-124"
         points="20.743922,69.505433 14.280967,62.889344 20.743922,60.400099 " />
      <path
         d="m 26.257909,56.026997 -5.513987,4.373102"
         id="Path-125"
         inkscape:connector-curvature="0" />
      <polyline
         id="Path-129"
         points="19.6620959 68.4272894 16.2608253 74.1331765 26.5677019 79.5628264 33.7380195 65.9614501 31.334519 60.6400641" />
      <path
         d="M 31.334519,60.640064 23.795765,74.661222"
         id="Path-136"
         inkscape:connector-curvature="0" />
      <polyline
         id="Path-213"
         points="26.5677019 79.5628264 23.7957651 74.6612221 16.2608253 74.1331765" />
      <polyline
         id="Path-214"
         points="41.9718826 53.0099138 41.1991682 65.8124628 41.4037295 68.7880549 42.6462915 84.1436804" />
      <polygon
         id="Path-215"
         points="39.840826,83.299839 42.646291,84.14368 44.916683,83.299839 43.71983,67.603204 41.260818,66.956849 38.939827,67.603204 " />
      <polyline
         id="Path-217"
         points="33.7380195 65.9614501 33.7380195 83.4192742 39.8408263 83.2998389" />
      <path
         d="M 38.939827,67.650643 33.738019,65.96145"
         id="Path-218"
         inkscape:connector-curvature="0" />
      <polyline
         id="Path-219"
         points="43.71983 67.6506431 51.6594797 65.2033955 51.8368912 83.08885 44.9166828 83.2998389" />
      <polyline
         id="Path-220"
         points="51.6594797 65.2033955 60.7860207 77.9001934 68.6851448 71.9065516 65.1869404 67.1584162" />
      <polyline
         id="Path-221"
         points="68.6851448 71.9065516 61.6489279 75.2603902 60.7860207 77.9001934" />
      <path
         d="M 61.648928,75.26039 51.836891,61.581362"
         id="Path-222"
         inkscape:connector-curvature="0" />
      <path
         d="m 51.857564,61.581362 -0.196783,3.622033"
         id="Path-223"
         inkscape:connector-curvature="0" />
      <polyline
         id="Path-224"
         points="51.8368912 61.5813616 63.2727009 69.2460055 70.6211461 60.807225 63.835853 58.8623098 58.3735163 55.513923" />
      <path
         d="M 63.835853,58.86231 63.272701,69.246005"
         id="Path-225"
         inkscape:connector-curvature="0" />
      <path
         d="m 51.847878,61.581362 0,-5.29722"
         id="Path-226"
         inkscape:connector-curvature="0" />
      <polyline
         id="Path-227"
         points="60.9632995 52.4262853 64.7355828 50.2254077 77.8411438 57.4456744 72.2893715 66.7454193 67.7915854 64.0541577" />
      <polyline
         id="Path-228"
         points="77.8411438 57.4456744 72.2490326 61.5813616 72.2490326 66.7454193" />
      <path
         d="M 72.249033,61.581362 60.786021,55.193072"
         id="Path-229"
         inkscape:connector-curvature="0" />
      <polyline
         id="Path-230"
         points="49.4143713 42.7087309 56.468698 42.1172439 62.8130499 41.8972561 66.5175267 41.8972561 83.6670613 41.5219976" />
      <polygon
         id="Path-231"
         points="82.880055,38.88182 83.667061,41.522944 83.060386,44.022076 65.763627,44.022076 64.865291,41.851515 65.763627,39.60277 " />
      <polyline
         id="Path-232"
         points="65.7636273 44.0220763 64.7355828 50.2254077 83.2690554 50.4789071 83.0603857 44.0220763" />
      <polyline
         id="Path-233"
         points="65.7636273 39.6027695 64.2780739 33.3476081 82.9110061 32.4043002 82.9110061 38.8818198" />
      <polyline
         id="Path-234"
         points="81.2756721 32.4043002 80.8687378 28.7025614 72.2490326 28.7025614" />
      <polyline
         id="Path-235"
         points="66.7419658 19.605827 71.4557404 16.6786955 77.3546358 25.7320916 64.2780739 33.3476081" />
      <path
         d="M 64.278074,33.347608 60.725259,31.519742"
         id="Path-236"
         inkscape:connector-curvature="0" />
      <polyline
         id="Path-237"
         points="71.4557404 16.6786955 71.4557404 22.1205891 77.3546358 25.7320916" />
      <polyline
         id="Path-238"
         points="71.4557404 22.1205891 69.8329071 23.2384677 58.4550156 29.8653661" />
      <polyline
         id="Path-239"
         points="29.8788218 73.257836 30.1133686 81.1871477 33.7380195 81.5813196" />
      <polyline
         id="Path-240"
         points="51.8368912 81.3389265 54.8195655 80.6230741 53.8406859 68.1956293" />
      <polyline
         id="Path-241"
         points="81.4735745 50.4789071 81.2175511 53.8926683 71.4809295 53.8926683" />
      <polygon
         id="Path-244"
         points="40.247546,18.875274 38.372919,23.826753 40.952354,25.575154 43.270055,23.495671 " />
      <path
         d=""
         id="Path-245"
         inkscape:connector-curvature="0" />
      <path
         d="m 51.215112,22.614722 -7.945057,0.880949"
         id="Path-246"
         inkscape:connector-curvature="0" />
      <path
         d="m 38.372919,23.826753 -7.785832,0.593543"
         id="Path-247"
         inkscape:connector-curvature="0" />
      <polygon
         id="Path-248"
         points="41.199168,65.812463 44.136035,61.27559 41.657162,59.200452 39.073762,61.010417 " />
      <path
         d="m 44.136035,61.27559 7.700856,0.305772"
         id="Path-249"
         inkscape:connector-curvature="0" />
      <path
         d="M 39.073762,61.010417 31.334519,60.640064"
         id="Path-250"
         inkscape:connector-curvature="0" />
      <path
         d="m 19.976941,25.732092 6.423888,4.533249"
         id="Path-251"
         inkscape:connector-curvature="0" />
      <polyline
         id="Path-252"
         points="58.7649121 44.9708599 63.0233225 41.9136996 58.9519531 39.4579768" />
      <polyline
         id="Path-253"
         points="58.9661615 44.9708599 56.4202418 42.1153642 57.3906978 40.7239351" />
    </g>
  </g>
</svg>
