<?xml version="1.0" encoding="UTF-8" standalone="no"?>
<svg
   xmlns:dc="http://purl.org/dc/elements/1.1/"
   xmlns:cc="http://creativecommons.org/ns#"
   xmlns:rdf="http://www.w3.org/1999/02/22-rdf-syntax-ns#"
   xmlns:svg="http://www.w3.org/2000/svg"
   xmlns="http://www.w3.org/2000/svg"
   xmlns:sodipodi="http://sodipodi.sourceforge.net/DTD/sodipodi-0.dtd"
   xmlns:inkscape="http://www.inkscape.org/namespaces/inkscape"
   width="88"
   height="90"
   viewBox="0 0 88 90"
   version="1.1"
   id="svg2"
   inkscape:version="0.91 r13725"
   sodipodi:docname="7.svg">
  <metadata
     id="metadata60">
    <rdf:RDF>
      <cc:Work
         rdf:about="">
        <dc:format>image/svg+xml</dc:format>
        <dc:type
           rdf:resource="http://purl.org/dc/dcmitype/StillImage" />
        <dc:title>B - 1</dc:title>
      </cc:Work>
    </rdf:RDF>
  </metadata>
  <defs
     id="defs58" />
  <sodipodi:namedview
     pagecolor="#ffffff"
     bordercolor="#666666"
     borderopacity="1"
     objecttolerance="10"
     gridtolerance="10"
     guidetolerance="10"
     inkscape:pageopacity="0"
     inkscape:pageshadow="2"
     inkscape:window-width="1451"
     inkscape:window-height="733"
     id="namedview56"
     showgrid="false"
     inkscape:zoom="2.7126437"
     inkscape:cx="44"
     inkscape:cy="43.5"
     inkscape:window-x="0"
     inkscape:window-y="0"
     inkscape:window-maximized="0"
     inkscape:current-layer="svg2" />
  <!-- Generator: Sketch 53.2 (72643) - https://sketchapp.com -->
  <title
     id="title4">B - 1</title>
  <desc
     id="desc6">Created with Sketch.</desc>
  <g
     id="Page-1"
     transform="matrix(0.98675303,0,0,1.0001726,0.69367176,1.5204465)"
     style="fill:none;fill-rule:evenodd;stroke:none;stroke-width:1">
    <g
       id="B---1"
       transform="translate(0.43242,0)"
       style="stroke:#b500ff">
      <polyline
         id="Path-59"
         points="43.6055517 62.0904936 43.4490768 54.5891376 43.292602 44.2930553 43.292602 26.1134242" />
      <polyline
         id="Path-61"
         points="25.2743702 44.2930553 43.3689496 44.4495302 61.15943 44.1019589" />
      <polyline
         id="Path-66"
         points="30.6353384 31.5728686 43.292602 44.4495302 56.04117 56.7432913" />
      <polyline
         id="Path-242"
         points="58.8192525 80.0538812 43.3689496 44.4495302 27.8106161 7.04949001" />
      <path
         d="m 6.5233755,28.867712 c 2.2822069,1.109987 3.9924755,1.913746 5.1308065,2.411275 5.70325,2.492715 10.567486,4.43329 13.998271,5.887165 0.470173,0.199247 0.956166,0.404485 1.457978,0.615716 2.837397,1.19436 8.231454,3.416914 16.182171,6.667662 l 26.333968,10.356077 10.486193,3.873501"
         id="Path-254"
         inkscape:connector-curvature="0" />
      <path
         d=""
         id="Path-255"
         inkscape:connector-curvature="0" />
      <polygon
         id="Path-256"
         points="56.04117,56.743291 68.215838,56.335749 75.672726,57.083618 69.644605,52.523829 61.15943,44.101959 69.644605,35.365608 75.186768,30.566083 68.040653,31.510301 56.04117,31.346738 55.668032,19.33545 56.380036,12.051219 51.831243,17.798047 43.292602,26.113424 34.444427,17.798047 29.863679,12.051219 30.791813,19.67908 30.635338,31.572869 18.642372,31.880314 11.654182,31.278987 17.030736,35.809689 25.27437,44.275745 17.245894,52.977742 12.189604,57.315802 18.870639,56.743291 30.791813,56.899766 31.196367,68.704047 30.466678,75.740441 35.083816,70.096879 43.605552,62.090494 52.22756,70.309095 56.91886,75.740441 55.935266,68.915468 " />
      <polygon
         id="Path-258"
         points="60.774744,36.899647 50.608759,37.03579 50.452284,26.688228 43.292602,34.13106 36.119491,27.012274 36.119491,37.192265 25.797417,37.192265 33.256445,44.44953 25.797417,51.757686 36.344504,51.504614 36.344504,61.688494 43.449077,54.589138 50.826205,61.688494 50.608759,51.504614 61.15943,51.504614 53.698677,44.275745 " />
      <polyline
         id="Path-216"
         points="30.7918132 56.8997662 36.3445042 51.5046143 43.3689496 44.4495302 50.6087588 37.03579 56.04117 31.346738" />
      <polygon
         id="Path-259"
         points="6.5233755,47.283936 25.27437,44.293055 6.5233755,40.830261 2.2382096e-13,44.089095 " />
      <polygon
         id="Path-260"
         points="17.030736,35.809689 17.030736,33.43047 18.642372,31.880314 11.218373,25.53714 6.5233755,28.867712 7.6426573,34.473925 " />
      <path
         d="M 7.6426572,34.473925 6.5233755,40.830261"
         id="Path-261"
         inkscape:connector-curvature="0" />
      <polygon
         id="Path-262"
         points="30.635338,31.572869 14.783681,20.062734 12.200727,13.084006 19.207404,15.462452 " />
      <path
         d="M 14.783681,20.062734 11.218373,25.53714"
         id="Path-263"
         inkscape:connector-curvature="0" />
      <polygon
         id="Path-264"
         points="27.810616,7.04949 24.712168,11.673361 30.791813,19.67908 32.37304,18.042515 34.674193,18.042515 33.547758,7.9899938 " />
      <path
         d="m 19.207404,15.462452 5.504764,-3.789091"
         id="Path-265"
         inkscape:connector-curvature="0" />
      <path
         d="M 33.547758,7.9899938 39.887132,6.6701341"
         id="Path-266"
         inkscape:connector-curvature="0" />
      <path
         d=""
         id="Path-267"
         inkscape:connector-curvature="0" />
      <polygon
         id="Path-268"
         points="43.04111,-1.0835777e-13 46.342832,6.6701341 43.292602,26.113424 39.887132,6.6701341 " />
      <path
         d=""
         id="Path-269"
         inkscape:connector-curvature="0" />
      <polygon
         id="Path-270"
         points="52.729044,7.883981 58.346663,6.7555227 61.668238,11.405342 55.668032,19.33545 54.074829,17.826153 51.798444,17.826153 " />
      <polygon
         id="Path-271"
         points="56.04117,31.346738 67.068253,15.071941 74.082225,12.583899 71.695524,19.58365 " />
      <polygon
         id="Path-272"
         points="68.040653,31.510301 75.312305,25.069569 80.112763,28.28888 79.037144,33.834543 69.644605,35.365608 69.644605,33.036587 " />
      <polygon
         id="Path-273"
         points="61.15943,44.101959 80.351763,40.30493 86.896183,43.385007 80.351763,46.678968 " />
      <path
         d="m 79.037144,33.834543 1.314619,6.470387"
         id="Path-274"
         inkscape:connector-curvature="0" />
      <path
         d="M 75.312305,25.069569 71.695524,19.58365"
         id="Path-275"
         inkscape:connector-curvature="0" />
      <path
         d=""
         id="Path-276"
         inkscape:connector-curvature="0" />
      <path
         d="M 67.068253,15.071941 61.668238,11.405342"
         id="Path-277"
         inkscape:connector-curvature="0" />
      <path
         d="m 80.351763,46.678968 -1.31036,6.323805"
         id="Path-278"
         inkscape:connector-curvature="0" />
      <polygon
         id="Path-279"
         points="80.112763,58.679108 79.041403,53.002773 69.644605,52.523829 69.62657,54.805607 68.215838,56.335749 75.421308,61.823783 " />
      <polygon
         id="Path-280"
         points="74.340886,74.119364 71.843421,67.228225 56.04117,56.743291 67.223305,71.688835 " />
      <path
         d="m 75.421308,61.823783 -3.577887,5.404442"
         id="Path-281"
         inkscape:connector-curvature="0" />
      <polygon
         id="Path-282"
         points="58.819252,80.053881 61.987302,75.430372 56.04117,68.458573 54.52106,70.147761 52.045087,70.147761 53.187784,79.103678 " />
      <path
         d="m 61.987302,75.430372 5.236003,-3.741537"
         id="Path-283"
         inkscape:connector-curvature="0" />
      <path
         d="m 53.187784,79.103678 -6.299982,1.315409"
         id="Path-284"
         inkscape:connector-curvature="0" />
      <polygon
         id="Path-285"
         points="43.605552,62.283011 40.509232,80.419087 43.819929,86.952114 46.887802,80.419087 " />
      <path
         d="M 40.509232,80.419087 34.198116,79.282993"
         id="Path-286"
         inkscape:connector-curvature="0" />
      <polygon
         id="Path-287"
         points="31.196367,68.704047 32.748576,70.349992 35.083816,70.096879 34.198116,79.282993 28.556874,80.419087 25.270681,75.740441 " />
      <polygon
         id="Path-243"
         points="30.791813,56.899766 20.041415,72.110689 13.056688,74.561567 15.294263,67.685815 " />
      <polygon
         id="Path-288"
         points="6.9516189,59.222316 7.9621209,53.708465 17.245894,52.977742 17.245894,55.240091 19.107616,56.743291 11.654182,62.426563 " />
      <path
         d="M 7.9621209,53.708465 6.5233755,47.283936"
         id="Path-289"
         inkscape:connector-curvature="0" />
      <path
         d="m 11.654182,62.426563 3.640081,5.259252"
         id="Path-290"
         inkscape:connector-curvature="0" />
      <path
         d="m 20.041415,72.110689 5.232955,3.629752"
         id="Path-291"
         inkscape:connector-curvature="0" />
      <path
         d="M 46.342832,6.6701341 52.729044,7.883981"
         id="Path-292"
         inkscape:connector-curvature="0" />
      <polyline
         id="Path-293"
         points="58.3466635 6.75552266 56.3800359 12.0512191 54.0748286 17.8261528 50.452284 26.6882283 36.3445042 61.6884938 32.7485761 70.3499917 30.4666776 75.7404414 28.5568742 80.4190873" />
      <polyline
         id="Path-294"
         points="6.95161885 59.2223163 12.35938 57.2832433 17.2458943 55.2400906 43.292602 44.4495302 60.7747443 36.8996472 69.6446051 33.0365872 75.1867684 30.5660832 80.1127626 28.2888798" />
    </g>
  </g>
</svg>
