<?xml version="1.0" encoding="UTF-8" standalone="no"?>
<svg
   xmlns:dc="http://purl.org/dc/elements/1.1/"
   xmlns:cc="http://creativecommons.org/ns#"
   xmlns:rdf="http://www.w3.org/1999/02/22-rdf-syntax-ns#"
   xmlns:svg="http://www.w3.org/2000/svg"
   xmlns="http://www.w3.org/2000/svg"
   xmlns:sodipodi="http://sodipodi.sourceforge.net/DTD/sodipodi-0.dtd"
   xmlns:inkscape="http://www.inkscape.org/namespaces/inkscape"
   width="88"
   height="90"
   viewBox="0 0 88 90"
   version="1.1"
   id="svg2"
   inkscape:version="0.91 r13725"
   sodipodi:docname="8.svg">
  <metadata
     id="metadata41">
    <rdf:RDF>
      <cc:Work
         rdf:about="">
        <dc:format>image/svg+xml</dc:format>
        <dc:type
           rdf:resource="http://purl.org/dc/dcmitype/StillImage" />
        <dc:title>C 2 - 1</dc:title>
      </cc:Work>
    </rdf:RDF>
  </metadata>
  <defs
     id="defs39" />
  <sodipodi:namedview
     pagecolor="#ffffff"
     bordercolor="#666666"
     borderopacity="1"
     objecttolerance="10"
     gridtolerance="10"
     guidetolerance="10"
     inkscape:pageopacity="0"
     inkscape:pageshadow="2"
     inkscape:window-width="1334"
     inkscape:window-height="777"
     id="namedview37"
     showgrid="false"
     inkscape:zoom="2.6516854"
     inkscape:cx="-21.118644"
     inkscape:cy="44.5"
     inkscape:window-x="0"
     inkscape:window-y="0"
     inkscape:window-maximized="0"
     inkscape:current-layer="svg2" />
  <!-- Generator: Sketch 53.2 (72643) - https://sketchapp.com -->
  <title
     id="title4">C 2 - 1</title>
  <desc
     id="desc6">Created with Sketch.</desc>
  <g
     id="Page-1"
     style="fill:none;fill-rule:evenodd;stroke:none;stroke-width:1"
     transform="translate(-0.5216295,0.62308886)">
    <g
       id="C-2---1"
       transform="translate(1.135751,1)"
       style="stroke:#ff007a">
      <polygon
         id="Path-325"
         points="21.559578,20.349812 43.9474,18.513344 66.384038,21.243372 68.410998,43.930993 65.297333,66.286977 42.472941,68.304917 20.176258,65.163129 18.269218,42.54502 " />
      <polyline
         id="Path-326"
         points="3.87992973 80.7075744 10.875551 73.971355 18.2692179 66.8270595 20.1762578 65.1631291 43.3401078 43.4091304 66.3840381 21.2433723 68.1361354 19.6335535 75.7381591 12.5539619 82.8152757 6.08994086" />
      <polyline
         id="Path-327"
         points="80.6726235 82.8131543 73.954737 75.7484127 66.9179278 67.8106995 65.2973331 66.2869774 49.7243813 49.9230893 43.3476027 43.4091304 36.861043 36.410591 21.5595782 20.3498121 20.0436982 18.5133443 12.668166 10.9932908 6.13590535 4.01234608" />
      <polyline
         id="Path-328"
         points="12.5783585 42.9280016 18.2692179 42.5450195 35.1154532 42.9280016 43.4042644 43.3987576 51.8698621 43.4127502 68.4109977 43.9309929 74.9627736 44.2058552" />
      <polygon
         id="Path-329"
         points="36.861043,36.410591 43.404264,34.900127 50.203473,36.92009 51.869862,43.41275 49.92861,49.994729 43.340108,51.562961 36.586181,49.719866 35.115453,42.928002 " />
      <polyline
         id="Path-330"
         points="44.3009255 11.9596058 43.9473997 18.5133443 43.4042644 43.4127502 43.3401078 51.5629607 42.4729412 68.3049165 42.1980788 75.3625285" />
      <polygon
         id="Path-331"
         points="28.295384,81.49857 36.366394,75.362528 42.472941,68.304917 48.726245,76.034453 56.02788,82.023272 67.569916,86.754079 75.654716,86.479216 80.672624,82.813154 84.790334,77.640028 85.694774,69.921884 81.354312,58.277665 75.654716,50.188623 68.410998,44.205855 76.204441,37.785147 82.140305,30.646291 86.771757,19.226945 86.771757,11.465664 82.815276,6.0899409 77.73125,2.1550273 70.082052,1.3258986 58.146136,5.4676524 50.529113,10.891108 43.9474,18.513344 38.151938,10.891108 30.529258,4.7258563 19.230834,8.5265128e-14 11.576333,0.27486235 6.1359053,4.0123461 2.1214378,9.0083322 1.2661448,16.545094 5.3835021,28.692447 10.876258,35.891192 18.269218,42.54502 10.876258,48.604616 4.8736498,55.967773 1.9184654e-13,67.338326 1.9286068e-13,75.362528 3.8799297,80.707574 9.1346089,84.640773 17.115407,85.446212 " />
      <polyline
         id="Path-332"
         points="2.12143783 9.00833217 8.12510689 19.2251768 14.3603662 29.7178083 19.9553049 31.5157268" />
      <polyline
         id="Path-333"
         points="11.5763327 0.27486235 21.1956389 6.79991539 31.6865026 13.6991848 33.1089266 19.3793346" />
      <polyline
         id="Path-334"
         points="77.7312499 2.15502726 67.3542368 8.10318536 56.8860018 14.2344943 55.1025798 19.8920154" />
      <polyline
         id="Path-335"
         points="67.3892405 33.0070976 73.1192441 31.3686405 79.9506275 21.0566848 86.7717573 11.4656643" />
      <polyline
         id="Path-336"
         points="84.7903343 77.6400281 78.6590254 67.3835834 72.3516372 56.7686156 66.8938848 55.0382295" />
      <polyline
         id="Path-337"
         points="75.6547159 86.4792163 65.5230824 79.8823879 55.4151383 72.9113432 53.7197559 67.3301938" />
      <polyline
         id="Path-338"
         points="9.13460893 84.640773 19.1760301 78.6310932 29.94162 72.2978941 31.6366488 66.7743771" />
      <polyline
         id="Path-339"
         points="19.1873445 53.5369586 13.7695458 55.0389366 -3.01980663e-14 75.3625285" />
      <polyline
         id="Path-340"
         points="4.87364984 55.9677728 6.72707936 65.693151 10.875551 73.971355 19.1873445 78.6919077 28.2953842 81.49857" />
      <polyline
         id="Path-341"
         points="36.3663944 75.3625285 29.94162 72.2978941 18.2692179 66.7743771 13.7695458 55.0389366 10.8762582 48.6046157" />
      <polyline
         id="Path-342"
         points="48.7262448 76.0344533 55.4151383 72.9113432 66.8938848 68.0300541 72.3516372 56.7686156 75.8421096 50.1415974" />
      <polyline
         id="Path-343"
         points="81.3543122 58.277665 78.6590254 67.6584457 73.954737 75.7484127 65.5230824 79.8823879 56.0278802 82.0232722" />
      <polyline
         id="Path-344"
         points="31.6366488 79.088263 42.1980788 75.3625285 53.7197559 80.2338394" />
      <polyline
         id="Path-345"
         points="79.2912139 34.0996381 74.9627736 44.2058552 78.7262043 54.5117593" />
      <polyline
         id="Path-346"
         points="76.2044406 37.7851466 73.1192441 31.3686405 68.1361354 19.6335535 56.8860018 14.2344943 50.5994744 11.0235213" />
      <polyline
         id="Path-347"
         points="82.1403049 30.6462909 79.9506275 21.0566848 75.6547159 12.5963907 67.3892405 7.9967599 58.1461359 5.46765243" />
      <polyline
         id="Path-348"
         points="5.38350207 28.6924466 8.12510689 19.2251768 12.668166 10.9932908 21.1956389 6.79991539 30.5292582 4.72585634" />
      <polyline
         id="Path-349"
         points="10.8762582 35.8911923 14.3603662 29.7178083 19.9553049 18.5133443 31.6865026 13.6991848 38.1519379 10.8911082" />
      <polyline
         id="Path-350"
         points="8.85974658 33.1395693 12.5783585 42.9280016 9.13460893 50.7784653" />
      <polyline
         id="Path-351"
         points="34.4468956 8.01552014 44.3009255 11.9596058 53.7773996 8.54306502" />
    </g>
  </g>
</svg>
