<?xml version="1.0" encoding="UTF-8"?>
<svg width="50px" height="24px" viewBox="0 0 50 24" version="1.1" xmlns="http://www.w3.org/2000/svg" xmlns:xlink="http://www.w3.org/1999/xlink">
    <!-- Generator: Sketch 53.2 (72643) - https://sketchapp.com -->
    <title>eo logo shape</title>
    <desc>Created with Sketch.</desc>
    <g id="Page-1" stroke="none" stroke-width="1" fill="none" fill-rule="evenodd" opacity="0.052589">
        <g id="iPad" transform="translate(-432.000000, -259.000000)" fill="#FFFFFF" fill-rule="nonzero">
            <path d="M470.149965,259.212357 C466.351223,259.212357 463.310754,260.713042 461.287709,263.089125 L448.99208,275.797299 L448.546557,276.246909 C447.55618,277.141166 446.164537,277.759503 444.481289,277.759503 C441.112825,277.759503 439.127645,275.544704 438.542466,272.819751 L447.868931,272.819751 L455.019416,265.603168 C453.202905,261.818704 449.443503,259.212357 444.436048,259.212357 C437.258025,259.212357 432.777722,264.564004 432.777722,271.069946 C432.777722,277.621544 437.167051,282.927534 444.481781,282.927534 C447.702229,282.927534 450.363069,281.898295 452.333497,280.187694 L452.93392,279.62196 L467.204403,265.093511 C468.086596,264.363019 469.035667,264.33374 470.196681,264.33374 C473.945756,264.33374 476.32335,267.655691 476.32335,271.069946 C476.32335,274.530353 474.265883,277.759503 470.196681,277.759503 C466.559723,277.759503 464.535203,275.178466 464.144756,272.159728 L459.698876,276.646397 C461.473098,280.384212 465.133167,282.927038 470.196681,282.927038 C477.511901,282.927038 481.946963,277.621544 481.946963,271.069449 C481.94598,264.564004 477.327988,259.212357 470.149965,259.212357 Z M444.481289,264.333244 C447.203106,264.333244 449.196646,266.087019 450.087199,268.353429 L438.83063,268.353429 C439.657256,266.087516 441.560806,264.333244 444.481289,264.333244 Z" id="eo-logo-shape"></path>
        </g>
    </g>
</svg>